<svg width="32" height="30" viewBox="0 0 32 30" version="1.1" xmlns="http://www.w3.org/2000/svg" xmlns:xlink="http://www.w3.org/1999/xlink">
<title>iconmonstr-linkedin-1</title>
<desc>Created using Figma</desc>
<g id="Canvas" transform="translate(2380 -1675)">
<g id="iconmonstr-linkedin-1">
<g id="Canvas">
<g id="Vector">
<g id="Vector">
<use xlink:href="#path0_fill" transform="translate(-2380 1675)" fill="#333333"/>
</g>
</g>
</g>
</g>
</g>
<defs>
<path id="path0_fill" d="M 6.49565 3.26087C 6.49565 5.06217 5.04783 6.52174 3.26087 6.52174C 1.47391 6.52174 0.026087 5.06217 0.026087 3.26087C 0.026087 1.46087 1.47391 0 3.26087 0L 3.26087 2.3139e-33C 5.04783 6.71348e-17 6.49565 1.46087 6.49565 3.26087ZM 6.52174 11.1304C 6.52174 10.0259 5.62631 9.13043 4.52174 9.13043L 2 9.13043C 0.895431 9.13043 0 10.0259 0 11.1304L 0 28C 0 29.1046 0.895431 30 2 30L 4.52174 30C 5.62631 30 6.52174 29.1046 6.52174 28L 6.52174 11.1304ZM 16.933 9.6978C 16.933 9.38445 16.679 9.13043 16.3657 9.13043L 12.453 9.13043C 11.3485 9.13043 10.453 10.0259 10.453 11.1304L 10.453 28C 10.453 29.1046 11.3485 30 12.453 30L 14.9343 30C 16.0389 30 16.9343 29.1046 16.9343 28L 16.9343 19.0448C 16.9343 12.9535 24.7983 12.4552 24.7983 19.0448L 24.7983 28C 24.7983 29.1046 25.6937 30 26.7983 30L 29.3043 30C 30.4089 30 31.3043 29.1046 31.3043 28L 31.3043 16.7857C 31.3043 7.8221 22.4537 6.96026 18.3762 10.2422C 17.9173 10.6115 16.933 10.2868 16.933 9.6978Z"/>
</defs>
</svg>
