<svg width="15" height="30" viewBox="0 0 15 30" version="1.1" xmlns="http://www.w3.org/2000/svg" xmlns:xlink="http://www.w3.org/1999/xlink">
<title>iconmonstr-facebook-1</title>
<desc>Created using Figma</desc>
<g id="Canvas" transform="translate(2443 -1677)">
<g id="iconmonstr-facebook-1">
<g id="Canvas">
<g id="iconmonstr facebook 1">
<g id="Vector">
<g id="Vector">
<use xlink:href="#path0_fill" transform="translate(-2443 1677)" fill="#333333"/>
</g>
</g>
</g>
</g>
</g>
</g>
<defs>
<path id="path0_fill" d="M 3.75 8.125C 3.75 9.16053 2.91053 10 1.875 10C 0.839467 10 0 10.8395 0 11.875L 0 13.125C 0 14.1605 0.839467 15 1.875 15C 2.91053 15 3.75 15.8395 3.75 16.875L 3.75 28C 3.75 29.1046 4.64543 30 5.75 30L 8 30C 9.10457 30 10 29.1046 10 28L 10 17C 10 15.8954 10.8954 15 12 15L 12.7235 15C 13.759 15 14.6232 14.2096 14.7155 13.1783L 14.805 12.1783C 14.9098 11.008 13.988 10 12.813 10L 12 10C 10.8954 10 10 9.10457 10 8L 10 7.91625C 10 6.7225 10.24 6.25 11.3937 6.25L 13 6.25C 14.1046 6.25 15 5.35457 15 4.25L 15 2C 15 0.895431 14.1046 0 13 0L 10.24 0L 10.24 5.06925e-34C 5.745 3.6571e-17 3.75 1.97875 3.75 5.76875L 3.75 8.125Z"/>
</defs>
</svg>
