<svg width="30" height="30" viewBox="0 0 30 30" version="1.1" xmlns="http://www.w3.org/2000/svg" xmlns:xlink="http://www.w3.org/1999/xlink">
<title>iconmonstr-email-4</title>
<desc>Created using Figma</desc>
<g id="Canvas" transform="translate(2479 -1677)">
<g id="iconmonstr-email-4">
<g id="Canvas">
<g id="iconmonstr email 8">
<g id="Vector">
<g id="Vector">
<use xlink:href="#path0_fill" transform="translate(-2479 1677)" fill="#333333"/>
</g>
</g>
</g>
</g>
</g>
</g>
<defs>
<path id="path0_fill" d="M 16.1638 0.381788C 15.4625 -0.127606 14.5128 -0.12723 13.8119 0.38272L 0.823392 9.83212C 0.306058 10.2085 0 10.8096 0 11.4494L 0 27.5274C 0 28.632 0.895431 29.5274 2 29.5274L 28 29.5274C 29.1046 29.5274 30 28.632 30 27.5274L 30 11.4504C 30 10.8101 29.6934 10.2085 29.1753 9.83222L 16.1638 0.381788ZM 14.9888 2.61742C 14.9888 2.61742 15.7132 3.14364 16.6069 3.79277L 24.9299 9.83802C 26.05 10.6516 26.0247 12.3297 24.8806 13.1091L 20.0405 16.4063C 19.3108 16.9033 18.3416 16.8632 17.6555 16.3074L 16.2592 15.1762C 15.5251 14.5815 14.475 14.5816 13.741 15.1765L 12.3445 16.3083C 11.6585 16.8642 10.6891 16.9045 9.95928 16.4074L 5.11515 13.1078C 3.97149 12.3288 3.9455 10.6516 5.06448 9.83752L 13.3715 3.79403C 14.2647 3.14421 14.9888 2.61742 14.9888 2.61742ZM 2.5 14.3499C 2.5 14.3499 3.24005 14.854 4.15295 15.4759L 6.93876 17.3735C 8.04627 18.1279 8.11307 19.7367 7.07192 20.5803L 5.75911 21.6441C 4.45163 22.7035 2.5 21.773 2.5 20.0902L 2.5 16.3499C 2.5 15.2453 2.5 14.3499 2.5 14.3499ZM 8.73521 27.0274C 6.85117 27.0274 6.01219 24.6603 7.47569 23.4738L 13.7405 18.3948C 14.4747 17.7996 15.5253 17.7996 16.2595 18.3948L 22.5243 23.4738C 23.9878 24.6603 23.1488 27.0274 21.2648 27.0274L 8.73521 27.0274ZM 27.5 20.0908C 27.5 21.7735 25.5486 22.7041 24.2411 21.6449L 22.9282 20.5813C 21.887 19.7378 21.9536 18.129 23.061 17.3745L 24.3738 16.48C 25.7015 15.5753 27.5 16.5262 27.5 18.1328L 27.5 20.0908Z"/>
</defs>
</svg>
