<svg width="30" height="30" viewBox="0 0 30 30" version="1.1" xmlns="http://www.w3.org/2000/svg" xmlns:xlink="http://www.w3.org/1999/xlink">
<title>iconmonstr-instagram-11</title>
<desc>Created using Figma</desc>
<g id="Canvas" transform="translate(2419 -1677)">
<g id="iconmonstr-instagram-11">
<g id="Canvas">
<g id="iconmonstr instagram 11">
<g id="Vector">
<g id="Vector">
<use xlink:href="#path0_fill" transform="translate(-2419 1677)" fill="#333333"/>
</g>
</g>
</g>
</g>
</g>
</g>
<defs>
<path id="path0_fill" d="M 15 2.70375C 15 2.70375 15.8971 2.70283 17.0017 2.70585C 19.2367 2.71196 19.7936 2.73312 21.0622 2.79124C 21.0624 2.79125 21.0626 2.79125 21.0628 2.79126C 25.1276 2.97635 27.0263 4.9051 27.2112 8.94C 27.2837 10.5212 27.2975 10.9963 27.2975 15.0013C 27.2975 19.0065 27.2825 19.481 27.2113 21.0613C 27.2113 21.0621 27.2112 21.0629 27.2112 21.0637C 27.0246 25.094 25.131 27.0262 21.0629 27.2112C 21.0626 27.2112 21.0624 27.2113 21.0621 27.2113C 19.4799 27.2838 19.0072 27.2988 15 27.2988C 10.9951 27.2988 10.52 27.2838 8.9389 27.2113C 8.9388 27.2113 8.9387 27.2112 8.9386 27.2112C 4.86374 27.025 2.97503 25.0875 2.79 21.0614C 2.79 21.0613 2.79 21.0612 2.79 21.0612C 2.7175 19.48 2.7025 19.0062 2.7025 15C 2.7025 10.996 2.71874 10.5215 2.78995 8.93992C 2.78998 8.93916 2.79002 8.93835 2.79005 8.93759C 2.97661 4.90478 4.87025 2.97512 8.9383 2.79002C 8.93859 2.79001 8.93891 2.78999 8.9392 2.78998C 10.2077 2.73287 10.7639 2.71191 12.9983 2.70584C 14.1029 2.70284 15 2.70375 15 2.70375ZM 15 3.03577e-16C 15 4.71237e-16 15 6.07153e-16 15 6.07153e-16C 10.9268 6.08047e-16 10.4164 0.0174957 8.81684 0.0899732C 8.81645 0.0899907 8.81605 0.0900092 8.81566 0.0900269C 3.3686 0.340214 0.341319 3.36262 0.0912596 8.81479C 0.0912533 8.81493 0.0912466 8.81507 0.0912403 8.81521C 0.0174985 10.4163 0 10.9264 0 15L 5.56782e-36 15C 3.60394e-19 19.0732 0.0174957 19.5849 0.0899732 21.1844C 0.0899907 21.1848 0.0900092 21.1852 0.0900269 21.1856C 0.340208 26.6325 3.36248 29.6598 8.81442 29.91C 8.8148 29.91 8.8152 29.91 8.81558 29.91C 10.4164 29.9825 10.9267 30 15 30C 19.0732 30 19.5849 29.9825 21.1844 29.91C 21.1848 29.91 21.1852 29.91 21.1856 29.91C 26.6274 29.6598 29.6622 26.6376 29.9087 21.1859C 29.9087 21.1853 29.9088 21.1847 29.9088 21.1841C 29.9825 19.5848 30 19.0729 30 15C 30 10.9265 29.9825 10.4163 29.91 8.81655C 29.91 8.81635 29.91 8.81615 29.91 8.81595C 29.6649 3.37371 26.6387 0.341323 21.1865 0.0912596C 21.1863 0.0912533 21.1862 0.0912466 21.186 0.0912403C 19.585 0.0174985 19.0736 0 15 0C 15 0 15 1.35916e-16 15 3.03577e-16ZM 15 7.2975C 10.7463 7.2975 7.2975 10.7463 7.2975 15C 7.2975 19.2537 10.7463 22.7038 15 22.7038C 19.2537 22.7038 22.7025 19.255 22.7025 15C 22.7025 10.7463 19.2537 7.2975 15 7.2975ZM 15 20C 12.2387 20 10 17.7625 10 15C 10 12.2387 12.2387 10 15 10C 17.7612 10 20 12.2387 20 15C 20 17.7625 17.7612 20 15 20ZM 23.0075 5.19375C 22.0125 5.19375 21.2062 6 21.2062 6.99375L 21.2063 6.99375C 21.2063 7.9875 22.0125 8.79375 23.0075 8.79375C 24.0012 8.79375 24.8062 7.9875 24.8062 6.99375C 24.8062 6 24.0012 5.19375 23.0075 5.19375Z"/>
</defs>
</svg>
