<svg width="31" height="30" viewBox="0 0 31 30" version="1.1" xmlns="http://www.w3.org/2000/svg" xmlns:xlink="http://www.w3.org/1999/xlink">
<title>iconmonstr-github-1</title>
<desc>Created using Figma</desc>
<g id="Canvas" transform="translate(2301 -1675)">
<g id="iconmonstr-github-1">
<g id="Vector">
<use xlink:href="#path0_fill" transform="translate(-2301 1675)" fill="#333333"/>
</g>
</g>
</g>
<defs>
<path id="path0_fill" d="M 15.3792 0L 15.3792 1.08664e-31C 6.88732 9.98844e-16 0 6.88604 0 15.3792L 1.08347e-31 15.3792C 7.36526e-16 21.6522 3.75509 27.047 9.14075 29.4391C 10.0398 29.8385 11.5344 30.217 11.5344 29.2333L 11.5344 29.2333L 11.5344 29.2333L 11.5344 29.2333C 11.5344 27.7615 10.1263 26.7737 8.69483 26.4311C 7.17535 26.0675 6.58588 25.0517 6.41952 24.6875C 6.37966 24.6002 6.34841 24.5102 6.31144 24.4216C 6.08653 23.8831 5.83438 23.4716 5.59604 23.1613C 5.07714 22.4858 3.5067 21.6579 4.32581 21.4241L 4.32581 21.4241C 4.60933 21.3432 4.91426 21.3683 5.20025 21.44C 6.24039 21.7008 6.8715 22.5635 7.06038 22.8571C 7.10219 22.9221 7.14043 22.991 7.181 23.0568C 8.36813 24.9815 10.1504 24.7494 11.1724 24.4005C 11.4408 24.3089 11.6137 24.0616 11.6798 23.7858L 11.6798 23.7858C 11.8465 23.0902 11.4276 22.03 10.7338 21.8558C 7.98104 21.1646 5.56599 19.4084 5.56599 14.5769L 5.56599 14.5769C 5.56599 13.811 5.6909 13.1092 5.91996 12.4703C 6.41087 11.1011 6.72182 9.55308 6.87028 8.10607L 6.87028 8.10607C 6.98559 6.98221 7.98213 6.25084 9.04559 6.63218C 9.20341 6.68877 9.37251 6.75589 9.55309 6.8353C 10.8736 7.41606 12.328 7.68764 13.7619 7.52952C 14.2843 7.47191 14.8119 7.44134 15.3384 7.43738C 15.3656 7.43718 15.3928 7.43718 15.4201 7.43738C 15.948 7.44135 16.4773 7.47208 17.0015 7.52999C 18.4347 7.68832 19.888 7.41604 21.2076 6.83511C 21.3886 6.75544 21.558 6.68816 21.7161 6.63146C 22.7769 6.25097 23.7707 6.98038 23.8871 8.10133L 23.8871 8.10133C 24.0376 9.5503 24.3512 11.1023 24.8403 12.4744C 25.0678 13.1125 25.1911 13.813 25.1911 14.5769L 25.1911 14.5769C 25.1911 18.7036 23.4353 20.5822 21.2094 21.4695C 20.1017 21.911 19.224 23.8206 19.224 25.013L 19.224 25.013L 19.224 25.013L 19.224 29.2333L 19.224 29.2333L 19.224 29.2333C 19.224 30.2262 20.7332 29.8359 21.64 29.4314C 27.0138 27.0345 30.7584 21.6447 30.7584 15.3792L 30.7584 15.3792C 30.7584 6.88604 23.8724 0 15.3792 0Z"/>
</defs>
</svg>
