<svg width="30" height="30" viewBox="0 0 30 30" version="1.1" xmlns="http://www.w3.org/2000/svg" xmlns:xlink="http://www.w3.org/1999/xlink">
<title>iconmonstr-pinterest-1</title>
<desc>Created using Figma</desc>
<g id="Canvas" transform="translate(2338 -1677)">
<g id="iconmonstr-pinterest-1">
<g id="Canvas">
<g id="iconmonstr pinterest 1">
<g id="Vector">
<g id="Vector">
<use xlink:href="#path0_fill" transform="translate(-2338 1677)" fill="#333333"/>
</g>
</g>
</g>
</g>
</g>
</g>
<defs>
<path id="path0_fill" fill-rule="evenodd" d="M 15 2.22045e-15C 15 9.94127e-16 15 -1.78677e-31 15 4.37909e-39C 6.71625 1.20696e-15 0 6.715 0 15L 4.93843e-34 15C 4.15564e-17 20.1759 2.6227 24.7365 6.61063 27.4312C 7.85688 28.2733 9.30958 27.1636 9.4363 25.6649C 9.46605 25.313 9.51414 24.9752 9.58605 24.6671C 9.58618 24.6665 9.58629 24.6661 9.58643 24.6655C 9.80306 23.7344 10.7835 19.5853 11.1789 17.9125C 11.2866 17.4568 11.2256 16.98 11.1021 16.5283C 10.9964 16.1419 10.8962 15.6102 10.8962 14.9825C 10.8962 12.8975 12.105 11.34 13.61 11.34C 14.8887 11.34 15.5075 12.3013 15.5075 13.4525C 15.5075 14.7386 14.6889 16.6621 14.2651 18.4458C 14.265 18.4461 14.265 18.4464 14.2649 18.4468C 13.9115 19.939 15.0139 21.1575 16.4862 21.1575C 19.1525 21.1575 21.2013 18.3463 21.2013 14.2887C 21.2013 10.6975 18.6213 8.18625 14.9363 8.18625C 10.6688 8.18625 8.16375 11.3875 8.16375 14.695C 8.16375 15.9829 8.65937 17.3658 9.27883 18.1161C 9.27962 18.117 9.28041 18.118 9.2812 18.119C 9.40133 18.2655 9.4195 18.3952 9.38488 18.544C 9.38414 18.5471 9.38336 18.5503 9.38259 18.5535L 8.96839 20.2451C 8.9678 20.2475 8.9672 20.25 8.9666 20.2524C 8.89993 20.5241 8.74892 20.5818 8.46556 20.4503C 8.46519 20.4501 8.46482 20.4499 8.46446 20.4497C 6.59102 19.577 5.42 16.8385 5.42 14.6388C 5.42 9.9075 8.8575 5.56125 15.3313 5.56125C 20.535 5.56125 24.5788 9.27 24.5788 14.225C 24.5788 19.395 21.32 23.555 16.795 23.555C 16.6848 23.555 16.5751 23.5509 16.4663 23.5428C 15.1666 23.4468 12.7534 24.1366 12.4229 25.3972C 12.4226 25.3982 12.4224 25.3992 12.4221 25.4003C 12.286 25.9235 12.0574 26.4997 11.7929 27.0665C 11.24 28.2511 11.7803 29.7113 13.0769 29.8775C 13.7066 29.9583 14.3484 30 15 30C 23.2838 30 30 23.2838 30 15C 30 6.715 23.2838 5.93192e-15 15 4.44089e-15C 15 4.44089e-15 15 3.44676e-15 15 2.22045e-15Z"/>
</defs>
</svg>
